# xmcd
#
# Track frame offsets:
#	150
#	13256
#	27327
#	39639
#	50290
#	65954
#	76475
#	92825
#	103721
#	119951
#	132950
#	151330
#	168550
#	188176
#
# Disc length: 2658 seconds
#
# Revision: 0
# Processed by: cddbd v1.5.2PL0 Copyright (c) Steve Scherf et al.
# Submitted via: EasyCDDAExtractor 11.5.0.1
#
DISCID=c90a600e
DTITLE=Various Artist - "Горнолыжный" Том - 1 
DYEAR=2002
DGENRE=
TTITLE0=Ю.Гарин - Монолог горнолыжника
TTITLE1=М.Калинкин - Гитара и лыжи
TTITLE2=Ю.Кукин - За туманом
TTITLE3=С.Бородин - Катание вне трасс
TTITLE4=А.Тальковский - Скалы зовут
TTITLE5=А.Городницкий - Песня полярных летчиков
TTITLE6=Ю.Гарин - Новогодний мост
TTITLE7=М.Калинкин - Чегетский блюз
TTITLE8=Н.Старченков, Л.Марков - Караганда
TTITLE9=С.Бородин - Жизнь удалась
TTITLE10=В.Михлюков - Листая жизнь
TTITLE11=Н.Старченков, Л.Марков - Родина
TTITLE12=Ю.Гарин - Ханума
TTITLE13=В.Михлюков - Упал снежок
EXTD=
EXTT0=
EXTT1=
EXTT2=
EXTT3=
EXTT4=
EXTT5=
EXTT6=
EXTT7=
EXTT8=
EXTT9=
EXTT10=
EXTT11=
EXTT12=
EXTT13=
PLAYORDER=
